<svg width="26" height="26" viewBox="0 0 26 26" fill="none" xmlns="http://www.w3.org/2000/svg">
<path d="M13.13 20.5725C13.4767 20.5725 13.7692 20.4533 14.0075 20.215C14.2458 19.9767 14.365 19.6842 14.365 19.3375C14.365 18.9908 14.2458 18.6983 14.0075 18.46C13.7692 18.2217 13.4767 18.1025 13.13 18.1025C12.7833 18.1025 12.4908 18.2217 12.2525 18.46C12.0142 18.6983 11.895 18.9908 11.895 19.3375C11.895 19.6842 12.0142 19.9767 12.2525 20.215C12.4908 20.4533 12.7833 20.5725 13.13 20.5725ZM11.9925 15.8275H13.91C13.91 15.2642 13.9804 14.7496 14.1212 14.2837C14.2621 13.8179 14.7008 13.2817 15.4375 12.675C16.1092 12.1117 16.5858 11.5592 16.8675 11.0175C17.1492 10.4758 17.29 9.88 17.29 9.23C17.29 8.08167 16.9162 7.16083 16.1687 6.4675C15.4212 5.77417 14.43 5.4275 13.195 5.4275C12.1333 5.4275 11.1962 5.69292 10.3837 6.22375C9.57125 6.75458 8.98083 7.48583 8.6125 8.4175L10.335 9.0675C10.5733 8.46083 10.9308 7.98958 11.4075 7.65375C11.8842 7.31792 12.4475 7.15 13.0975 7.15C13.8342 7.15 14.43 7.35042 14.885 7.75125C15.34 8.15208 15.5675 8.66667 15.5675 9.295C15.5675 9.77167 15.4267 10.2212 15.145 10.6437C14.8633 11.0662 14.4517 11.505 13.91 11.96C13.26 12.5233 12.7779 13.0812 12.4637 13.6337C12.1496 14.1862 11.9925 14.9175 11.9925 15.8275V15.8275ZM13 26C11.2233 26 9.54417 25.6587 7.9625 24.9762C6.38083 24.2937 4.99958 23.3621 3.81875 22.1812C2.63792 21.0004 1.70625 19.6192 1.02375 18.0375C0.34125 16.4558 0 14.7767 0 13C0 11.2017 0.34125 9.51167 1.02375 7.93C1.70625 6.34833 2.63792 4.9725 3.81875 3.8025C4.99958 2.6325 6.38083 1.70625 7.9625 1.02375C9.54417 0.34125 11.2233 0 13 0C14.7983 0 16.4883 0.34125 18.07 1.02375C19.6517 1.70625 21.0275 2.6325 22.1975 3.8025C23.3675 4.9725 24.2937 6.34833 24.9762 7.93C25.6587 9.51167 26 11.2017 26 13C26 14.7767 25.6587 16.4558 24.9762 18.0375C24.2937 19.6192 23.3675 21.0004 22.1975 22.1812C21.0275 23.3621 19.6517 24.2937 18.07 24.9762C16.4883 25.6587 14.7983 26 13 26ZM13 24.05C16.0767 24.05 18.6875 22.9721 20.8325 20.8163C22.9775 18.6604 24.05 16.055 24.05 13C24.05 9.92333 22.9775 7.3125 20.8325 5.1675C18.6875 3.0225 16.0767 1.95 13 1.95C9.945 1.95 7.33958 3.0225 5.18375 5.1675C3.02792 7.3125 1.95 9.92333 1.95 13C1.95 16.055 3.02792 18.6604 5.18375 20.8163C7.33958 22.9721 9.945 24.05 13 24.05Z" fill="black"/>
</svg>
